<svg width="41" height="41" viewBox="0 0 41 41" fill="none" xmlns="http://www.w3.org/2000/svg">
<path d="M3.41666 37.5833H37.5833" stroke="#94B0AF" stroke-width="1.5" stroke-miterlimit="10" stroke-linecap="round" stroke-linejoin="round"/>
<path d="M5.03958 37.5833L5.125 17.0321C5.125 15.99 5.62041 14.9992 6.44041 14.35L18.3987 5.03958C19.0003 4.57414 19.7394 4.3216 20.5 4.3216C21.2606 4.3216 21.9997 4.57414 22.6012 5.03958L34.5596 14.3329C35.3967 14.9821 35.875 15.9729 35.875 17.0321V37.5833" stroke="#94B0AF" stroke-width="1.5" stroke-miterlimit="10" stroke-linejoin="round"/>
<path d="M22.2083 29.0417H18.7917C17.3738 29.0417 16.2292 30.1862 16.2292 31.6042V37.5833H24.7708V31.6042C24.7708 30.1862 23.6263 29.0417 22.2083 29.0417ZM16.2292 23.4896H12.8125C11.8729 23.4896 11.1042 22.7208 11.1042 21.7812V19.2187C11.1042 18.2792 11.8729 17.5104 12.8125 17.5104H16.2292C17.1688 17.5104 17.9375 18.2792 17.9375 19.2187V21.7812C17.9375 22.7208 17.1688 23.4896 16.2292 23.4896ZM28.1875 23.4896H24.7708C23.8313 23.4896 23.0625 22.7208 23.0625 21.7812V19.2187C23.0625 18.2792 23.8313 17.5104 24.7708 17.5104H28.1875C29.1271 17.5104 29.8958 18.2792 29.8958 19.2187V21.7812C29.8958 22.7208 29.1271 23.4896 28.1875 23.4896Z" stroke="#94B0AF" stroke-width="1.5" stroke-miterlimit="10" stroke-linejoin="round"/>
<path d="M32.4583 11.9583L32.4071 6.83333H24.8904" stroke="#94B0AF" stroke-width="1.5" stroke-miterlimit="10" stroke-linecap="round" stroke-linejoin="round"/>
</svg>
