<svg width="41" height="41" viewBox="0 0 41 41" fill="none" xmlns="http://www.w3.org/2000/svg">
<path d="M20.5 10.66C18.5538 10.66 16.6514 11.2371 15.0332 12.3183C13.415 13.3996 12.1538 14.9364 11.409 16.7344C10.6643 18.5324 10.4694 20.5109 10.8491 22.4197C11.2288 24.3285 12.1659 26.0818 13.5421 27.4579C14.9182 28.8341 16.6715 29.7712 18.5803 30.1509C20.4891 30.5306 22.4676 30.3357 24.2656 29.591C26.0636 28.8462 27.6004 27.585 28.6817 25.9668C29.7629 24.3486 30.34 22.4462 30.34 20.5C30.34 17.8903 29.3033 15.3874 27.4579 13.5421C25.6126 11.6967 23.1097 10.66 20.5 10.66ZM20.5 27.06C19.2026 27.06 17.9342 26.6753 16.8555 25.9544C15.7767 25.2336 14.9359 24.2091 14.4393 23.0104C13.9428 21.8117 13.8129 20.4927 14.066 19.2202C14.3192 17.9477 14.9439 16.7788 15.8614 15.8614C16.7788 14.9439 17.9477 14.3192 19.2202 14.066C20.4927 13.8129 21.8117 13.9428 23.0104 14.4393C24.2091 14.9359 25.2336 15.7767 25.9544 16.8555C26.6753 17.9342 27.06 19.2026 27.06 20.5C27.0546 22.2382 26.3617 23.9036 25.1326 25.1326C23.9036 26.3617 22.2382 27.0546 20.5 27.06ZM29.52 0H11.48C8.43532 0 5.51533 1.2095 3.36241 3.36241C1.2095 5.51533 0 8.43532 0 11.48V29.52C0 32.5647 1.2095 35.4847 3.36241 37.6376C5.51533 39.7905 8.43532 41 11.48 41H29.52C32.5647 41 35.4847 39.7905 37.6376 37.6376C39.7905 35.4847 41 32.5647 41 29.52V11.48C41 8.43532 39.7905 5.51533 37.6376 3.36241C35.4847 1.2095 32.5647 0 29.52 0ZM37.72 29.52C37.72 30.5968 37.5079 31.6631 37.0958 32.658C36.6837 33.6529 36.0797 34.5568 35.3183 35.3183C34.5568 36.0797 33.6529 36.6837 32.658 37.0958C31.6631 37.5079 30.5968 37.72 29.52 37.72H11.48C10.4032 37.72 9.33687 37.5079 8.342 37.0958C7.34713 36.6837 6.44316 36.0797 5.68172 35.3183C4.92028 34.5568 4.31628 33.6529 3.90419 32.658C3.4921 31.6631 3.28 30.5968 3.28 29.52V11.48C3.28 9.30522 4.14393 7.21952 5.68172 5.68172C7.21952 4.14393 9.30522 3.28 11.48 3.28H29.52C30.5968 3.28 31.6631 3.4921 32.658 3.90419C33.6529 4.31628 34.5568 4.92028 35.3183 5.68172C36.0797 6.44316 36.6837 7.34713 37.0958 8.342C37.5079 9.33687 37.72 10.4032 37.72 11.48V29.52ZM33.62 9.84C33.62 10.3265 33.4757 10.8022 33.2054 11.2067C32.9351 11.6112 32.5509 11.9266 32.1014 12.1127C31.6519 12.2989 31.1573 12.3477 30.6801 12.2527C30.2029 12.1578 29.7646 11.9235 29.4205 11.5795C29.0765 11.2354 28.8422 10.7971 28.7473 10.3199C28.6523 9.84273 28.7011 9.3481 28.8873 8.8986C29.0734 8.44909 29.3888 8.06489 29.7933 7.79458C30.1978 7.52428 30.6735 7.38 31.16 7.38C31.8124 7.38 32.4381 7.63918 32.8995 8.10052C33.3608 8.56186 33.62 9.18757 33.62 9.84Z" fill="#E2F2F1"/>
</svg>
